<?xml version="1.0" encoding="UTF-8" standalone="no"?>
<svg
   xmlns:dc="http://purl.org/dc/elements/1.1/"
   xmlns:cc="http://creativecommons.org/ns#"
   xmlns:rdf="http://www.w3.org/1999/02/22-rdf-syntax-ns#"
   xmlns:svg="http://www.w3.org/2000/svg"
   xmlns="http://www.w3.org/2000/svg"
   height="85.774391"
   width="87.301628"
   id="svg10"
   xml:space="preserve"
   enable-background="new 0 0 91 91"
   viewBox="0 0 87.301627 85.77439"
   y="0px"
   x="0px"
   version="1.1"><metadata
     id="metadata16"><rdf:RDF><cc:Work
         rdf:about=""><dc:format>image/svg+xml</dc:format><dc:type
           rdf:resource="http://purl.org/dc/dcmitype/StillImage" /><dc:title></dc:title></cc:Work></rdf:RDF></metadata><defs
     id="defs14" /><path
     d="M 82.333826,63.165955 59.919156,56.792469 69.70438,77.941657 52.274812,62.473983 51.914705,85.774392 42.922379,64.276094 32.488265,85.112792 33.714222,61.841871 15.272705,76.087895 26.474129,55.653442 3.6777777,60.487192 22.636088,46.936502 3.0425663e-7,41.400594 22.960272,37.417547 4.9678019,22.608436 27.382472,28.981923 17.597248,7.8327344 35.026816,23.300408 35.386923,-1.0257164e-6 44.379249,21.498298 54.813363,0.66159877 53.587406,23.93252 72.028923,9.6864959 60.8275,30.120949 l 22.79635,-4.83375 -18.95831,13.55069 22.636088,5.535908 -22.960272,3.983047 z"
     id="path92" /></svg>