<?xml version="1.0" encoding="UTF-8" standalone="no"?>
<svg
   xmlns:dc="http://purl.org/dc/elements/1.1/"
   xmlns:cc="http://creativecommons.org/ns#"
   xmlns:rdf="http://www.w3.org/1999/02/22-rdf-syntax-ns#"
   xmlns:svg="http://www.w3.org/2000/svg"
   xmlns="http://www.w3.org/2000/svg"
   xmlns:sodipodi="http://sodipodi.sourceforge.net/DTD/sodipodi-0.dtd"
   xmlns:inkscape="http://www.inkscape.org/namespaces/inkscape"
   height="110.77574"
   width="110.77574"
   id="svg10"
   xml:space="preserve"
   enable-background="new 0 0 91 91"
   viewBox="0 0 110.77574 110.77574"
   y="0px"
   x="0px"
   version="1.1"
   sodipodi:docname="gift-scene.svg"
   inkscape:version="0.92.5 (2060ec1f9f, 2020-04-08)"><sodipodi:namedview
     pagecolor="#ffffff"
     bordercolor="#666666"
     borderopacity="1"
     objecttolerance="10"
     gridtolerance="10"
     guidetolerance="10"
     inkscape:pageopacity="0"
     inkscape:pageshadow="2"
     inkscape:window-width="1600"
     inkscape:window-height="836"
     id="namedview14"
     showgrid="false"
     inkscape:zoom="1.6113636"
     inkscape:cx="86.25927"
     inkscape:cy="33.425291"
     inkscape:window-x="1920"
     inkscape:window-y="27"
     inkscape:window-maximized="1"
     inkscape:current-layer="svg10" /><metadata
     id="metadata16"><rdf:RDF><cc:Work
         rdf:about=""><dc:format>image/svg+xml</dc:format><dc:type
           rdf:resource="http://purl.org/dc/dcmitype/StillImage" /><dc:title></dc:title></cc:Work></rdf:RDF></metadata><defs
     id="defs14" /><path
     d="m 30.578821,9.6807131 c -0.159221,-4.177e-4 -0.570408,-0.073484 -0.681768,0.1159 -0.314928,0.3159489 -0.777914,0.3090299 -0.916718,0.7575519 -0.264796,0.855645 0.425419,1.618618 1.270262,1.379463 0.903814,0.427089 1.443624,-0.278743 1.435953,-1.080521 C 31.64089,10.45047 31.294077,10.180818 30.965109,9.9954734 30.804741,9.8977948 30.683624,9.8435098 30.578821,9.6807131 Z"
     id="petal"
     inkscape:connector-curvature="0"
     style="fill:none;stroke:#000000;stroke-width:0.23202284;stroke-opacity:1"
     sodipodi:nodetypes="ccscccc" /><g
     id="gift"
     transform="matrix(0.41851106,0,0,0.41851106,36.362835,32.158333)"><path
       id="giftbox"
       d="m 69.083,44.175 h -7.222 c 0.7,-0.458 1.273,-0.932 1.646,-1.414 2.58,-3.334 1.969,-8.128 -1.365,-10.708 -1.39,-1.076 -3.035,-1.597 -4.666,-1.597 -2.281,0 -4.538,1.018 -6.042,2.962 -0.768,0.992 -1.293,2.778 -1.654,4.795 -0.361,-2.017 -0.886,-3.804 -1.654,-4.795 -1.504,-1.944 -3.761,-2.962 -6.042,-2.962 -1.632,0 -3.276,0.521 -4.666,1.597 -3.334,2.58 -3.945,7.374 -1.365,10.708 0.373,0.482 0.946,0.956 1.646,1.414 h -6.784 c -4.134,0 -7.497,3.363 -7.497,7.498 v 32.714 c 0,4.133 3.363,7.497 7.497,7.497 h 38.166 c 4.134,0 7.497,-3.363 7.497,-7.497 V 51.673 C 76.58,47.539 73.217,44.175 69.083,44.175 Z M 54.668,35.921 c 0.676,-0.874 1.7,-1.375 2.808,-1.375 0.55,0 1.371,0.129 2.163,0.742 0.749,0.579 1.227,1.415 1.346,2.354 0.12,0.939 -0.133,1.868 -0.702,2.603 -0.695,0.802 -3.572,2.106 -7.02,3.278 0.269,-3.627 0.808,-6.734 1.405,-7.602 z m -16.093,1.721 c 0.12,-0.939 0.598,-1.775 1.346,-2.354 0.792,-0.613 1.614,-0.742 2.164,-0.742 1.108,0 2.131,0.501 2.797,1.361 0.602,0.874 1.142,3.986 1.413,7.618 -3.444,-1.17 -6.317,-2.471 -7.007,-3.266 -0.579,-0.749 -0.832,-1.678 -0.713,-2.617 z M 27.51,51.673 c 0,-1.879 1.528,-3.408 3.407,-3.408 h 38.166 c 1.879,0 3.408,1.529 3.408,3.408 v 5.224 H 27.51 Z m 0,32.713 v -23.4 H 47.956 V 87.793 H 30.917 C 29.038,87.794 27.51,86.265 27.51,84.386 Z m 44.981,0 c 0,1.879 -1.529,3.407 -3.408,3.407 H 52.045 V 60.986 h 20.446 z"
       inkscape:connector-curvature="0" /><rect
       id="gift-sparkle-2"
       height="10.102"
       width="2.0450001"
       transform="matrix(-0.8479,0.5301,-0.5301,-0.8479,62.1106,21.1171)"
       y="14.417"
       x="27.004" /><rect
       id="gift-sparkle-6"
       height="2.0450001"
       width="10.102"
       transform="matrix(-0.9336,-0.3584,0.3584,-0.9336,146.6359,166.1704)"
       y="68.474998"
       x="83.665001" /><rect
       id="gift-sparkle-1"
       height="2.0450001"
       width="10.101"
       transform="matrix(-0.9336,-0.3584,0.3584,-0.9336,7.5685,80.9517)"
       y="38.751999"
       x="6.2350001" /><rect
       id="gift-sparkle-5"
       height="10.102"
       width="2.0439999"
       transform="matrix(-0.2755,-0.9613,0.9613,-0.2755,73.0865,141.4937)"
       y="38.153999"
       x="88.841003" /><rect
       id="gift-sparkle-0"
       height="10.102"
       width="2.0439999"
       transform="matrix(-0.2757,-0.9612,0.9612,-0.2757,-50.5732,94.0265)"
       y="61.014999"
       x="9.1149998" /><rect
       id="gift-sparkle-4"
       height="10.101"
       width="2.0450001"
       transform="matrix(-0.7988,-0.6016,0.6016,-0.7988,121.8894,83.7967)"
       y="16.466999"
       x="73.933998" /><rect
       id="gift-sparkle-3"
       height="10.101"
       width="2.0450001"
       y="8.1169996"
       x="48.977001" /></g></svg>