<?xml version="1.0" encoding="UTF-8" standalone="no"?>
<svg
   xmlns:dc="http://purl.org/dc/elements/1.1/"
   xmlns:cc="http://creativecommons.org/ns#"
   xmlns:rdf="http://www.w3.org/1999/02/22-rdf-syntax-ns#"
   xmlns:svg="http://www.w3.org/2000/svg"
   xmlns="http://www.w3.org/2000/svg"
   height="86.475708"
   width="90.314888"
   id="svg10"
   xml:space="preserve"
   enable-background="new 0 0 91 91"
   viewBox="0 0 90.314888 86.475708"
   y="0px"
   x="0px"
   version="1.1"><metadata
     id="metadata16"><rdf:RDF><cc:Work
         rdf:about=""><dc:format>image/svg+xml</dc:format><dc:type
           rdf:resource="http://purl.org/dc/dcmitype/StillImage" /><dc:title></dc:title></cc:Work></rdf:RDF></metadata><defs
     id="defs14" /><g
     transform="translate(-0.54272117,-1.6780535)"
     id="g4"><path
       id="path2"
       d="m 2.898,40.648 c 6.0880322,4.482195 12.29524,8.813376 18.307842,13.391152 3.219755,3.116506 0.759247,7.315854 -0.234386,10.812718 -1.755024,5.569937 -3.714805,11.084655 -5.339614,16.689733 -1.023126,5.178496 6.042723,8.721637 9.678143,4.999352 5.942024,-4.258502 11.77748,-8.676646 17.787023,-12.834002 3.959002,-2.098234 7.190521,1.543575 10.209885,3.567365 4.753981,3.389176 9.392238,6.955935 14.219803,10.232239 4.608004,2.573059 10.163078,-3.050206 7.746463,-7.65814 C 73.059069,72.880039 70.661438,65.963372 68.563666,58.962223 67.791922,54.548317 72.25544,52.6008 75.112955,50.353768 79.804278,46.879968 84.628741,43.571095 89.235473,39.99247 93.107049,36.40592 89.477256,29.384988 84.347699,30.261 77.037745,30.21297 69.720083,30.357691 62.415012,30.187545 57.97711,29.557753 57.50103,24.712672 56.248051,21.298937 54.394407,15.763642 52.737874,10.153074 50.758966,4.6655898 48.544823,-0.12950109 40.744003,1.1599252 39.992036,6.3095432 37.687141,13.246473 35.56061,20.249262 33.142723,27.144471 31.174476,31.17045 26.418459,30.124717 22.785894,30.262 16.947609,30.314531 11.098613,30.156068 5.2671138,30.342725 0.38529149,31.01343 -1.2280807,37.90562 2.898,40.648 Z" /></g></svg>