<?xml version="1.0" encoding="UTF-8" standalone="no"?>
<svg
   xmlns:dc="http://purl.org/dc/elements/1.1/"
   xmlns:cc="http://creativecommons.org/ns#"
   xmlns:rdf="http://www.w3.org/1999/02/22-rdf-syntax-ns#"
   xmlns:svg="http://www.w3.org/2000/svg"
   xmlns="http://www.w3.org/2000/svg"
   height="23.998905"
   width="24"
   id="svg20"
   version="1.1"
   y="0px"
   x="0px"
   viewBox="0 0 24 23.998905">
  <metadata
     id="metadata26">
    <rdf:RDF>
      <cc:Work
         rdf:about="">
        <dc:format>image/svg+xml</dc:format>
        <dc:type
           rdf:resource="http://purl.org/dc/dcmitype/StillImage" />
        <dc:title>a</dc:title>
      </cc:Work>
    </rdf:RDF>
  </metadata>
  <defs
     id="defs24" />
  <title
     id="title2">a</title>
  <path
     d="m 10.59,10.588905 a 2,2 0 0 0 1.41,3.41 2,2 0 0 0 2,-2 1.966,1.966 0 0 0 -0.59,-1.41 2.048,2.048 0 0 0 -2.82,0 z M 18,5.9989047 a 6.0000001,6.0000001 0 0 0 -12,0 6,6 0 0 0 0,12.0000003 6,6 0 0 0 12,0 6,6 0 0 0 0,-12.0000003 z m 0,8.0000003 a 3.869,3.869 0 0 0 -4,4 2.0000001,2.0000001 0 0 1 -4,0 3.869,3.869 0 0 0 -4,-4 2,2 0 0 1 0,-4.0000003 3.869,3.869 0 0 0 4,-4 2,2 0 0 1 4,0 3.869,3.869 0 0 0 4,4 2,2 0 0 1 0,4.0000003 z"
     id="path8" />
</svg>
