<?xml version="1.0" encoding="UTF-8"?>
<svg id="svg10" width="110.78" height="110.78" enable-background="new 0 0 91 91" version="1.1" viewBox="0 0 110.78 110.78" xml:space="preserve" xmlns="http://www.w3.org/2000/svg" xmlnscc="http://creativecommons.org/ns#" xmlnsdc="http://purl.org/dc/elements/1.1/" xmlnsrdf="http://www.w3.org/1999/02/22-rdf-syntax-ns#"><metadata id="metadata16"><rdf:RDF><cc:Work rdfabout=""><dc:format>image/svg+xml</dc:format><dc:type rdf:resource="http://purl.org/dc/dcmitype/StillImage"/><dc:title/></cc:Work></rdf:RDF></metadata><path id="path48" transform="rotate(15.533 -213.67 583.77)" d="m-58.11 43.362-13.629-1.4475-4.8361 12.825-12.038-6.5531-9.3758 9.9976-8.6139-10.661-12.488 5.6487-3.8784-13.146-13.699 0.43974 1.4475-13.629-12.825-4.8361 6.5531-12.038-9.9976-9.3758 10.661-8.6139-5.6487-12.488 13.146-3.8784-0.43973-13.699 13.629 1.4475 4.8361-12.825 12.038 6.5531 9.3758-9.9976 8.6139 10.661 12.488-5.6487 3.8784 13.146 13.699-0.43974-1.4475 13.629 12.825 4.8361-6.5531 12.038 9.9976 9.3758-10.661 8.6139 5.6487 12.488-13.146 3.8784z"/></svg>
