<?xml version="1.0" encoding="UTF-8" standalone="no"?>
<svg
   xmlns:dc="http://purl.org/dc/elements/1.1/"
   xmlns:cc="http://creativecommons.org/ns#"
   xmlns:rdf="http://www.w3.org/1999/02/22-rdf-syntax-ns#"
   xmlns:svg="http://www.w3.org/2000/svg"
   xmlns="http://www.w3.org/2000/svg"
   id="svg5397"
   version="1.1"
   viewBox="0 0 300 300"
>
  <defs
     id="defs5391" />
  <metadata
     id="metadata5394">
    <rdf:RDF>
      <cc:Work
         rdf:about="">
        <dc:format>image/svg+xml</dc:format>
        <dc:type
           rdf:resource="http://purl.org/dc/dcmitype/StillImage" />
        <dc:title></dc:title>
      </cc:Work>
    </rdf:RDF>
  </metadata>
  <g
     transform="translate(-83.499771,178.97503)"
     id="layer1">
    <path
       style="fill:none;stroke:#000000;stroke-width:2.65443182;stroke-opacity:1"
       id="spinner"
       d="M 300.33648,103.04116 266.50839,89.650486 245.02375,119.0112 218.89501,93.694385 187.80981,112.59832 173.35828,79.209664 137.40513,84.778704 136.83127,48.401364 101.48366,39.787862 114.87423,5.9597797 85.513522,-15.525018 110.83024,-41.653759 91.926396,-72.738955 l 33.388664,-14.451514 -5.56915,-35.953131 36.37745,-0.57385 8.6135,-35.34764 33.82809,13.39061 21.4848,-29.36074 26.12864,25.31684 31.08524,-18.90397 14.45142,33.38869 35.95326,-5.56914 0.57386,36.37744 35.34761,8.613503 -13.39058,33.828042 29.36071,21.484797 -25.31671,26.128741 18.90384,31.085197 -33.38866,14.451514 5.56914,35.953166 -36.37754,0.573859 z" />
    <text
       transform="rotate(-15.378207)"
       id="message"
       y="28.916475"
       x="235.68625"
       style="font-style:normal;font-weight:normal;font-size:17.48859978px;line-height:1.25;font-family:sans-serif;letter-spacing:0px;word-spacing:0px;fill:#000000;fill-opacity:1;stroke:none;stroke-width:0.43721491"
       xml:space="preserve"><tspan
         style="font-style:normal;font-variant:normal;font-weight:normal;font-stretch:normal;font-family:Jet;-inkscape-font-specification:Jet;text-align:center;text-anchor:middle;stroke-width:0.43721491"
         y="28.916475"
         x="235.68625"
         id="tspan5413">いらっしゃいませ！</tspan><tspan
         id="tspan5417"
         style="font-style:normal;font-variant:normal;font-weight:normal;font-stretch:normal;font-family:Jet;-inkscape-font-specification:Jet;text-align:center;text-anchor:middle;stroke-width:0.43721491"
         y="50.777225"
         x="235.68625">Welcome!</tspan></text>
  </g>
</svg>
