<?xml version="1.0" encoding="UTF-8"?>
<!-- Created with Inkscape (http://www.inkscape.org/) -->
<svg id="svg5397" version="1.1" viewBox="0 0 29.711 29.711" xmlns="http://www.w3.org/2000/svg" xmlns:cc="http://creativecommons.org/ns#" xmlns:dc="http://purl.org/dc/elements/1.1/" xmlns:rdf="http://www.w3.org/1999/02/22-rdf-syntax-ns#">
 <metadata id="metadata5394">
  <rdf:RDF>
   <cc:Work rdf:about="">
    <dc:format>image/svg+xml</dc:format>
    <dc:type rdf:resource="http://purl.org/dc/dcmitype/StillImage"/>
    <dc:title/>
   </cc:Work>
  </rdf:RDF>
 </metadata>
 <g id="layer1" transform="translate(-83.5 -91.314)">
  <path id="spinner" d="m105.11 119.23-3.3718-1.3347-2.1415 2.9266-2.6044-2.5235-3.0984 1.8843-1.4405-3.328-3.5837 0.5551-0.0572-3.626-3.5233-0.85856 1.3347-3.3718-2.9266-2.1415 2.5235-2.6044-1.8843-3.0984 3.3281-1.4405-0.55511-3.5837 3.626-0.0572 0.85856-3.5233 3.3719 1.3347 2.1415-2.9266 2.6044 2.5235 3.0985-1.8843 1.4405 3.3281 3.5837-0.55511 0.0572 3.626 3.5233 0.85856-1.3347 3.3718 2.9266 2.1415-2.5235 2.6044 1.8843 3.0984-3.328 1.4405 0.55511 3.5837-3.626 0.0572z" fill="none" stroke="black" stroke-width=".26458"/>
  <text id="message" transform="rotate(-15.378)" x="67.228447" y="127.92484" fill="#000000" font-family="Jet" font-size="2.378px" letter-spacing="0px" stroke-width=".05945" text-anchor="middle" word-spacing="0px" style="line-height:1.25" xml:space="preserve"><tspan id="tspan5413" x="67.228447" y="127.92484" text-align="center">いらっしゃいませ！</tspan><tspan id="tspan5417" x="67.228447" y="130.89734" text-align="center">Welcome!</tspan></text>
 </g>
</svg>
